<svg xmlns="http://www.w3.org/2000/svg" xmlns:xlink="http://www.w3.org/1999/xlink" width="500" zoomAndPan="magnify" viewBox="0 0 375 374.999991" height="500" preserveAspectRatio="xMidYMid meet" version="1.0"><defs><clipPath id="id1"><path d="M 160 216 L 169 216 L 169 225.136719 L 160 225.136719 Z M 160 216 " clip-rule="nonzero"/></clipPath><clipPath id="id2"><path d="M 122.636719 130.636719 L 235.886719 130.636719 L 235.886719 225.136719 L 122.636719 225.136719 Z M 122.636719 130.636719 " clip-rule="nonzero"/></clipPath></defs><path fill="#f46530" d="M 152.113281 164.835938 L 162.601562 164.835938 L 162.601562 175.324219 L 152.113281 175.324219 Z M 152.113281 164.835938 " fill-opacity="1" fill-rule="evenodd"/><path fill="#2a2e30" d="M 180.386719 156.597656 L 188.8125 156.597656 L 188.8125 165.027344 L 180.386719 165.027344 Z M 180.386719 156.597656 " fill-opacity="1" fill-rule="evenodd"/><path fill="#f46530" d="M 164.097656 177.097656 L 172.523438 177.097656 L 172.523438 185.523438 L 164.097656 185.523438 Z M 164.097656 177.097656 " fill-opacity="1" fill-rule="evenodd"/><path fill="#2a2e30" d="M 153.519531 186.273438 L 157.734375 186.273438 L 157.734375 190.484375 L 153.519531 190.484375 Z M 153.519531 186.273438 " fill-opacity="1" fill-rule="evenodd"/><path fill="#2a2e30" d="M 150.191406 153.5625 L 154.410156 153.5625 L 154.410156 157.773438 L 150.191406 157.773438 Z M 150.191406 153.5625 " fill-opacity="1" fill-rule="evenodd"/><path fill="#2a2e30" d="M 170.789062 165.351562 L 175.003906 165.351562 L 175.003906 169.566406 L 170.789062 169.566406 Z M 170.789062 165.351562 " fill-opacity="1" fill-rule="evenodd"/><path fill="#2a2e30" d="M 193.257812 153.042969 L 197.472656 153.042969 L 197.472656 157.253906 L 193.257812 157.253906 Z M 193.257812 153.042969 " fill-opacity="1" fill-rule="evenodd"/><path fill="#2a2e30" d="M 189.789062 145.179688 L 195.703125 145.179688 L 195.703125 151.101562 L 189.789062 151.101562 Z M 189.789062 145.179688 " fill-opacity="1" fill-rule="evenodd"/><path fill="#2a2e30" d="M 168.402344 136.382812 L 174.324219 136.382812 L 174.324219 142.296875 L 168.402344 142.296875 Z M 168.402344 136.382812 " fill-opacity="1" fill-rule="evenodd"/><path fill="#2a2e30" d="M 182.746094 142.910156 L 186.960938 142.910156 L 186.960938 147.121094 L 182.746094 147.121094 Z M 182.746094 142.910156 " fill-opacity="1" fill-rule="evenodd"/><path fill="#2a2e30" d="M 204.121094 155.804688 L 208.332031 155.804688 L 208.332031 160.015625 L 204.121094 160.015625 Z M 204.121094 155.804688 " fill-opacity="1" fill-rule="evenodd"/><path fill="#f46530" d="M 180.335938 169.058594 L 191.105469 169.058594 L 191.105469 179.828125 L 180.335938 179.828125 Z M 180.335938 169.058594 " fill-opacity="1" fill-rule="evenodd"/><path fill="#f46530" d="M 157.816406 196.621094 L 170.175781 196.621094 L 170.175781 208.980469 L 157.816406 208.980469 Z M 157.816406 196.621094 " fill-opacity="1" fill-rule="evenodd"/><path fill="#2a2e30" d="M 173.3125 188.632812 L 181.734375 188.632812 L 181.734375 197.0625 L 173.3125 197.0625 Z M 173.3125 188.632812 " fill-opacity="1" fill-rule="evenodd"/><path fill="#f46530" d="M 186.585938 199.613281 L 195.011719 199.613281 L 195.011719 208.035156 L 186.585938 208.035156 Z M 186.585938 199.613281 " fill-opacity="1" fill-rule="evenodd"/><g clip-path="url(#id1)"><path fill="#2a2e30" d="M 160.546875 216.714844 L 168.972656 216.714844 L 168.972656 225.136719 L 160.546875 225.136719 Z M 160.546875 216.714844 " fill-opacity="1" fill-rule="evenodd"/></g><path fill="#2a2e30" d="M 192.972656 165.40625 L 201.394531 165.40625 L 201.394531 173.832031 L 192.972656 173.832031 Z M 192.972656 165.40625 " fill-opacity="1" fill-rule="evenodd"/><path fill="#2a2e30" d="M 163.929688 188.1875 L 168.144531 188.1875 L 168.144531 192.398438 L 163.929688 192.398438 Z M 163.929688 188.1875 " fill-opacity="1" fill-rule="evenodd"/><path fill="#2a2e30" d="M 178.203125 182.015625 L 182.417969 182.015625 L 182.417969 186.226562 L 178.203125 186.226562 Z M 178.203125 182.015625 " fill-opacity="1" fill-rule="evenodd"/><path fill="#2a2e30" d="M 174.574219 202.863281 L 182.121094 202.863281 L 182.121094 210.402344 L 174.574219 210.402344 Z M 174.574219 202.863281 " fill-opacity="1" fill-rule="evenodd"/><path fill="#2a2e30" d="M 172.152344 217.976562 L 177.144531 217.976562 L 177.144531 222.964844 L 172.152344 222.964844 Z M 172.152344 217.976562 " fill-opacity="1" fill-rule="evenodd"/><path fill="#2a2e30" d="M 184.535156 186.015625 L 192.074219 186.015625 L 192.074219 193.554688 L 184.535156 193.554688 Z M 184.535156 186.015625 " fill-opacity="1" fill-rule="evenodd"/><path fill="#2a2e30" d="M 193.976562 178.867188 L 201.523438 178.867188 L 201.523438 186.40625 L 193.976562 186.40625 Z M 193.976562 178.867188 " fill-opacity="1" fill-rule="evenodd"/><path fill="#f46530" d="M 162.414062 147.242188 L 174.769531 147.242188 L 174.769531 159.59375 L 162.414062 159.59375 Z M 162.414062 147.242188 " fill-opacity="1" fill-rule="evenodd"/><g clip-path="url(#id2)"><path fill="#2a2e30" d="M 122.820312 173.847656 C 125.335938 173.78125 127.398438 173.109375 128.992188 171.804688 C 130.570312 170.511719 131.628906 168.734375 132.164062 166.484375 C 132.6875 164.222656 132.953125 160.339844 132.988281 154.871094 C 133.019531 149.402344 133.121094 145.792969 133.289062 144.066406 C 133.589844 141.316406 134.125 139.097656 134.933594 137.421875 C 135.738281 135.761719 136.730469 134.421875 137.90625 133.410156 C 139.097656 132.417969 140.605469 131.648438 142.4375 131.128906 C 143.675781 130.8125 145.710938 130.640625 148.527344 130.640625 L 151.277344 130.640625 L 151.277344 138.363281 L 149.746094 138.363281 C 146.339844 138.363281 144.089844 138.964844 142.964844 140.210938 C 141.859375 141.4375 141.304688 144.167969 141.304688 148.433594 C 141.304688 157.027344 141.117188 162.449219 140.75 164.714844 C 140.167969 168.222656 139.15625 170.925781 137.730469 172.820312 C 136.304688 174.734375 134.070312 176.414062 131.015625 177.886719 C 134.625 179.398438 137.242188 181.695312 138.867188 184.800781 C 140.480469 187.886719 141.300781 192.96875 141.300781 200.023438 C 141.300781 206.398438 141.347656 210.207031 141.484375 211.417969 C 141.757812 213.652344 142.40625 215.214844 143.484375 216.097656 C 144.542969 216.972656 146.636719 217.421875 149.742188 217.421875 L 151.269531 217.421875 L 151.269531 225.140625 L 148.519531 225.140625 C 145.3125 225.140625 142.984375 224.878906 141.539062 224.355469 C 139.441406 223.601562 137.710938 222.375 136.335938 220.695312 C 134.957031 219 134.054688 216.871094 133.652344 214.269531 C 133.246094 211.683594 133.011719 207.441406 132.976562 201.53125 C 132.941406 195.640625 132.675781 191.5625 132.152344 189.300781 C 131.617188 187.03125 130.558594 185.257812 128.980469 183.945312 C 127.386719 182.621094 125.324219 181.929688 122.808594 181.882812 L 122.808594 173.859375 Z M 235.707031 173.847656 L 235.707031 181.871094 C 233.191406 181.917969 231.128906 182.609375 229.53125 183.933594 C 227.957031 185.246094 226.898438 187.019531 226.363281 189.253906 C 225.84375 191.503906 225.554688 195.359375 225.539062 200.828125 C 225.5 206.316406 225.40625 209.90625 225.238281 211.652344 C 224.933594 214.4375 224.394531 216.652344 223.59375 218.3125 C 222.789062 219.972656 221.800781 221.296875 220.621094 222.289062 C 219.429688 223.296875 217.917969 224.054688 216.089844 224.570312 C 214.851562 224.9375 212.816406 225.125 210 225.125 L 207.246094 225.125 L 207.246094 217.40625 L 208.773438 217.40625 C 212.179688 217.40625 214.429688 216.785156 215.554688 215.558594 C 216.660156 214.332031 217.214844 211.5625 217.214844 207.265625 C 217.214844 199.078125 217.367188 193.875 217.667969 191.675781 C 218.191406 188.054688 219.242188 185.128906 220.808594 182.953125 C 222.382812 180.785156 224.617188 179.089844 227.503906 177.867188 C 223.726562 176.074219 221.078125 173.691406 219.53125 170.71875 C 217.984375 167.75 217.214844 162.75 217.214844 155.703125 C 217.214844 149.308594 217.148438 145.496094 216.980469 144.242188 C 216.746094 142.039062 216.109375 140.515625 215.03125 139.644531 C 213.972656 138.789062 211.878906 138.351562 208.773438 138.351562 L 207.246094 138.351562 L 207.246094 130.628906 L 210 130.628906 C 213.207031 130.628906 215.535156 130.882812 216.980469 131.417969 C 219.082031 132.140625 220.808594 133.351562 222.1875 135.039062 C 223.5625 136.75 224.464844 138.898438 224.871094 141.484375 C 225.273438 144.089844 225.507812 148.332031 225.542969 154.222656 C 225.5625 160.132812 225.84375 164.191406 226.367188 166.441406 C 226.902344 168.691406 227.960938 170.46875 229.539062 171.78125 C 231.132812 173.089844 233.199219 173.777344 235.710938 173.84375 Z M 235.707031 173.847656 " fill-opacity="1" fill-rule="nonzero"/></g></svg>